<?xml version="1.0" encoding="UTF-8"?>
<!DOCTYPE svg PUBLIC "-//W3C//DTD SVG 1.1//EN" "http://www.w3.org/Graphics/SVG/1.1/DTD/svg11.dtd">
<!-- Creator: CorelDRAW X7 -->
<svg xmlns="http://www.w3.org/2000/svg" xml:space="preserve" width="210mm" height="297mm" version="1.1" style="shape-rendering:geometricPrecision; text-rendering:geometricPrecision; image-rendering:optimizeQuality; fill-rule:evenodd; clip-rule:evenodd"
viewBox="0 0 21000 29700"
 xmlns:xlink="http://www.w3.org/1999/xlink">
 <defs>
  <style type="text/css">
   <![CDATA[
    .fil4 {fill:#B1B3B5}
    .fil2 {fill:#373435}
    .fil24 {fill:#3E3F95}
    .fil14 {fill:url(#id0)}
    .fil1 {fill:url(#id1)}
    .fil13 {fill:url(#id2)}
    .fil10 {fill:url(#id3)}
    .fil12 {fill:url(#id4)}
    .fil8 {fill:url(#id5)}
    .fil5 {fill:url(#id6)}
    .fil6 {fill:url(#id7)}
    .fil22 {fill:url(#id8)}
    .fil20 {fill:url(#id9)}
    .fil11 {fill:url(#id10)}
    .fil23 {fill:url(#id11)}
    .fil21 {fill:url(#id12)}
    .fil9 {fill:url(#id13)}
    .fil7 {fill:url(#id14)}
    .fil17 {fill:url(#id15)}
    .fil19 {fill:url(#id16)}
    .fil16 {fill:url(#id17)}
    .fil15 {fill:url(#id18)}
    .fil0 {fill:url(#id19)}
    .fil3 {fill:url(#id20)}
    .fil18 {fill:url(#id21)}
   ]]>
  </style>
  <linearGradient id="id0" gradientUnits="userSpaceOnUse" x1="2681.92" y1="14106.5" x2="4181.92" y2="14106.5">
   <stop offset="0" style="stop-opacity:1; stop-color:#3051A0"/>
   <stop offset="1" style="stop-opacity:1; stop-color:#3E4095"/>
  </linearGradient>
  <linearGradient id="id1" gradientUnits="userSpaceOnUse" x1="4650.25" y1="13001.5" x2="19650.3" y2="13001.5">
   <stop offset="0" style="stop-opacity:1; stop-color:#FEFEFE"/>
   <stop offset="0.478431" style="stop-opacity:1; stop-color:#2B2A2B"/>
   <stop offset="1" style="stop-opacity:1; stop-color:white"/>
  </linearGradient>
  <linearGradient id="id2" gradientUnits="userSpaceOnUse" xlink:href="#id0" x1="2681.89" y1="13207.6" x2="4181.89" y2="13207.6">
  </linearGradient>
  <linearGradient id="id3" gradientUnits="userSpaceOnUse" x1="2782.63" y1="11226" x2="4081.15" y2="10796.8">
   <stop offset="0" style="stop-opacity:1; stop-color:#3051A0"/>
   <stop offset="1" style="stop-opacity:1; stop-color:#3E3F95"/>
  </linearGradient>
  <linearGradient id="id4" gradientUnits="userSpaceOnUse" x1="2752.39" y1="12290.4" x2="4111.39" y2="11924.8">
   <stop offset="0" style="stop-opacity:1; stop-color:#2E52A1"/>
   <stop offset="1" style="stop-opacity:1; stop-color:#3E4095"/>
  </linearGradient>
  <linearGradient id="id5" gradientUnits="userSpaceOnUse" x1="2615.39" y1="12981.1" x2="1248.47" y2="13434.1">
   <stop offset="0" style="stop-opacity:1; stop-color:#3E4095"/>
   <stop offset="1" style="stop-opacity:1; stop-color:#322F69"/>
  </linearGradient>
  <linearGradient id="id6" gradientUnits="userSpaceOnUse" xlink:href="#id5" x1="2604.59" y1="10773.4" x2="1266.48" y2="11249.4">
  </linearGradient>
  <linearGradient id="id7" gradientUnits="objectBoundingBox" x1="82.3788%" y1="9.92489%" x2="17.6205%" y2="90.0765%">
   <stop offset="0" style="stop-opacity:1; stop-color:#DAF1FC"/>
   <stop offset="1" style="stop-opacity:1; stop-color:#AFE2F9"/>
  </linearGradient>
  <linearGradient id="id8" gradientUnits="objectBoundingBox" xlink:href="#id7" x1="82.3788%" y1="9.92489%" x2="17.6205%" y2="90.0765%">
  </linearGradient>
  <linearGradient id="id9" gradientUnits="objectBoundingBox" xlink:href="#id7" x1="82.3788%" y1="9.92489%" x2="17.6205%" y2="90.0765%">
  </linearGradient>
  <linearGradient id="id10" gradientUnits="objectBoundingBox" x1="13.9252%" y1="14.3481%" x2="86.0741%" y2="85.6534%">
   <stop offset="0" style="stop-opacity:1; stop-color:#DAF1FC"/>
   <stop offset="1" style="stop-opacity:1; stop-color:#F1F9FD"/>
  </linearGradient>
  <linearGradient id="id11" gradientUnits="objectBoundingBox" xlink:href="#id10" x1="13.9252%" y1="14.3481%" x2="86.0741%" y2="85.6534%">
  </linearGradient>
  <linearGradient id="id12" gradientUnits="objectBoundingBox" xlink:href="#id10" x1="13.9252%" y1="14.3481%" x2="86.0741%" y2="85.6534%">
  </linearGradient>
  <linearGradient id="id13" gradientUnits="userSpaceOnUse" xlink:href="#id5" x1="2524.07" y1="13862" x2="1356.83" y2="14348.8">
  </linearGradient>
  <linearGradient id="id14" gradientUnits="userSpaceOnUse" xlink:href="#id5" x1="2628.25" y1="11921.2" x2="1235.61" y2="12294">
  </linearGradient>
  <linearGradient id="id15" gradientUnits="userSpaceOnUse" x1="3122.42" y1="14137" x2="3818.14" y2="14200.7">
   <stop offset="0" style="stop-opacity:1; stop-color:#DADBDC"/>
   <stop offset="1" style="stop-opacity:1; stop-color:#EFEFF0"/>
  </linearGradient>
  <linearGradient id="id16" gradientUnits="userSpaceOnUse" xlink:href="#id15" x1="3790.66" y1="13339.6" x2="4199.56" y2="13373.2">
  </linearGradient>
  <linearGradient id="id17" gradientUnits="userSpaceOnUse" x1="1640.53" y1="13200.6" x2="2698.41" y2="13089">
   <stop offset="0" style="stop-opacity:1; stop-color:#96989A"/>
   <stop offset="0.321569" style="stop-opacity:1; stop-color:#B8B9BB"/>
   <stop offset="1" style="stop-opacity:1; stop-color:#DADBDC"/>
  </linearGradient>
  <linearGradient id="id18" gradientUnits="userSpaceOnUse" x1="1630.21" y1="12135.9" x2="2708.73" y2="11953.8">
   <stop offset="0" style="stop-opacity:1; stop-color:#96989A"/>
   <stop offset="0.309804" style="stop-opacity:1; stop-color:#B8B9BB"/>
   <stop offset="1" style="stop-opacity:1; stop-color:#DADBDC"/>
  </linearGradient>
  <linearGradient id="id19" gradientUnits="userSpaceOnUse" x1="16644.7" y1="11465.8" x2="16644.7" y2="12824.9">
   <stop offset="0" style="stop-opacity:1; stop-color:#322F69"/>
   <stop offset="1" style="stop-opacity:1; stop-color:#3050A0"/>
  </linearGradient>
  <linearGradient id="id20" gradientUnits="userSpaceOnUse" xlink:href="#id19" x1="9451.31" y1="11485.3" x2="9451.31" y2="12611.8">
  </linearGradient>
  <linearGradient id="id21" gradientUnits="userSpaceOnUse" xlink:href="#id15" x1="3122.98" y1="13241.3" x2="3443.66" y2="13268.2">
  </linearGradient>
 </defs>
 <g id="Layer_x0020_1">
  <metadata id="CorelCorpID_0Corel-Layer"/>
  <path class="fil0" d="M16397 12265c142,-277 254,-467 334,-570 82,-104 163,-170 246,-200 -69,3 -138,16 -208,39 -69,23 -136,54 -201,96 -81,51 -150,115 -206,190 -56,75 -84,137 -84,184 0,26 7,46 22,61 15,15 35,22 62,22 14,0 28,-2 42,-6 14,-5 22,-7 22,-7 3,0 5,1 7,3 2,2 3,4 3,7 0,7 -7,13 -21,17 -15,5 -32,8 -53,8 -44,0 -79,-15 -107,-46 -28,-30 -42,-69 -42,-117 0,-76 37,-150 111,-222 74,-72 176,-132 307,-180 70,-26 140,-45 211,-58 71,-14 141,-20 212,-20 9,0 15,1 20,2 5,2 7,5 7,8 0,3 -19,10 -59,20 -39,10 -73,30 -102,62 -33,38 -87,140 -161,307 -74,167 -136,300 -186,400 45,2 80,14 105,36 25,22 37,51 37,88 0,52 -28,99 -86,143 -58,44 -121,66 -190,66 -6,0 -11,-1 -15,-3 -4,-3 -6,-6 -6,-9 0,-7 14,-12 41,-16 27,-3 51,-8 71,-15 47,-16 85,-40 114,-71 29,-31 44,-63 44,-96 0,-32 -11,-58 -34,-75 -23,-18 -55,-27 -96,-27 -37,70 -77,133 -120,189 -44,55 -92,106 -145,152 -73,62 -143,111 -210,146 -67,35 -124,52 -170,52 -44,0 -78,-12 -101,-35 -23,-23 -35,-56 -35,-100 0,-89 60,-176 180,-261 120,-85 267,-140 440,-164zm-9 27c-63,5 -124,20 -182,45 -59,25 -116,61 -173,107 -60,49 -109,99 -146,151 -38,51 -56,92 -56,124 0,25 7,44 21,58 14,14 34,20 60,20 59,0 124,-36 193,-108 70,-72 164,-205 283,-397zm705 -255c-28,3 -48,5 -62,6 -13,1 -23,1 -31,1 -1,0 -3,0 -5,0 -10,-1 -17,-1 -24,-1l-25 0 -59 57c-9,8 -20,19 -34,33 -23,25 -39,37 -46,37 -4,0 -7,-1 -9,-3 -2,-3 -3,-6 -3,-9 0,-6 13,-21 40,-47 13,-13 23,-24 32,-31l53 -53 2 -6c18,-69 32,-104 42,-104 7,0 12,2 15,6 2,4 4,10 4,19 0,0 0,3 -1,7 0,3 -1,8 -1,11 0,13 5,22 13,26 8,6 31,10 68,14 48,5 83,14 103,26 20,13 31,32 31,56 0,24 -30,76 -89,156 -11,16 -20,28 -26,36 -3,4 -7,9 -13,17 -34,47 -51,77 -51,90 0,3 1,6 4,8 2,2 6,3 10,3 19,0 87,-57 204,-171l19 -19c71,-70 124,-120 160,-148 35,-29 60,-43 74,-43 1,0 5,0 12,2 2,0 4,1 5,1 -40,21 -102,75 -185,162 -23,24 -41,42 -54,55l-10 11c-125,126 -212,190 -261,190 -31,0 -55,-10 -74,-30 -18,-19 -27,-45 -27,-79 0,-46 19,-97 57,-152 38,-56 85,-101 142,-134zm233 321c0,-24 9,-46 29,-64 20,-19 43,-28 70,-28 28,0 49,7 65,20 15,13 22,31 22,53 0,28 -9,50 -29,68 -19,17 -43,26 -73,26 -26,0 -46,-7 -61,-21 -16,-13 -23,-31 -23,-54z"/>
  <polygon class="fil1" points="4650,13068 19650,13068 19650,12935 4650,12935 "/>
  <g id="_3186983818464">
   <path class="fil2" d="M5874 13384l8 -36 17 0 0 2c-2,40 -3,70 -3,89 0,5 0,17 1,36 0,13 0,23 1,30l-18 0c-5,-52 -22,-93 -51,-123 -29,-30 -66,-45 -113,-45 -52,0 -93,20 -121,60 -29,39 -43,96 -43,170 0,75 16,134 47,176 32,41 76,62 132,62 38,0 71,-10 97,-30 27,-20 46,-48 57,-85l20 0c-11,46 -33,82 -66,106 -32,25 -74,37 -125,37 -71,0 -128,-23 -172,-70 -43,-47 -65,-109 -65,-186 0,-78 22,-141 66,-190 44,-48 101,-73 171,-73 32,0 62,6 89,18 27,12 51,29 71,52zm251 119c-29,0 -51,14 -67,42 -17,28 -25,66 -25,114 0,49 8,87 24,114 15,27 37,41 65,41 28,0 50,-14 66,-41 17,-28 25,-65 25,-114 0,-49 -8,-87 -24,-115 -15,-27 -37,-41 -64,-41zm-154 162c0,-55 14,-99 43,-131 29,-33 67,-50 115,-50 44,0 79,16 106,46 26,31 40,72 40,123 0,55 -15,99 -44,131 -29,33 -67,49 -115,49 -44,0 -79,-15 -106,-45 -26,-31 -39,-72 -39,-123zm454 -181l0 81c16,-28 35,-48 56,-61 21,-13 45,-20 73,-20 37,0 63,10 80,29 16,20 24,52 24,97l0 153c0,19 2,31 7,35 5,4 16,7 35,9l0 20c-25,-2 -43,-3 -52,-3 -9,-1 -16,-1 -22,-1 -7,0 -17,1 -28,1 -12,1 -29,1 -52,3l0 -20c28,-2 44,-6 49,-10 5,-5 7,-17 7,-37l0 -158c0,-33 -5,-56 -15,-71 -10,-15 -26,-22 -49,-22 -28,0 -53,12 -77,37 -23,24 -35,51 -35,78l0 136c0,21 2,34 7,38 5,4 17,7 35,9l0 20c-23,-2 -40,-2 -50,-3 -10,0 -18,-1 -24,-1 -7,0 -16,1 -27,1 -12,1 -30,1 -54,3l0 -20c28,-3 45,-6 50,-10 5,-5 7,-17 7,-37l0 -202c0,-19 -3,-31 -9,-35 -6,-5 -22,-7 -48,-8l0 -19c24,-2 44,-4 62,-6 17,-1 34,-3 50,-6zm528 30l5 -20 16 0c-1,8 -1,15 -1,23 0,7 0,17 0,28 0,9 0,24 1,43 0,2 0,3 0,4l-17 0c-3,-29 -13,-50 -29,-65 -15,-15 -37,-23 -64,-23 -19,0 -35,6 -47,17 -12,11 -18,25 -18,42 0,16 5,28 15,37 11,8 36,19 75,30 38,11 65,25 81,40 16,15 24,35 24,60 0,32 -11,57 -33,76 -23,18 -53,27 -91,27 -18,0 -34,-2 -49,-7 -15,-5 -30,-12 -44,-22l-5 23 -16 0c0,-14 1,-28 1,-43 0,-15 1,-30 1,-45 0,-9 -1,-15 -1,-19 0,-5 -1,-9 -1,-12l19 0c2,35 11,62 27,79 17,18 40,27 72,27 22,0 40,-6 53,-17 12,-11 19,-26 19,-46 0,-17 -5,-30 -16,-39 -10,-10 -29,-19 -58,-28l0 0c-80,-23 -119,-57 -119,-100 0,-29 10,-54 30,-72 21,-18 48,-28 82,-28 18,0 34,3 48,8 14,4 28,12 40,22zm165 -113l21 0 -3 103 85 0 0 19 -85 0 -5 187 0 17c0,27 3,45 10,55 7,10 18,15 35,15 11,0 21,-3 29,-9 8,-6 15,-15 20,-27l14 5c-6,21 -17,38 -33,50 -16,11 -35,17 -57,17 -26,0 -45,-7 -57,-21 -11,-14 -17,-37 -17,-69l0 -10 5 -210 -37 0 0 -15c22,-10 39,-24 51,-42 13,-18 20,-40 24,-65zm259 83l0 94c13,-31 27,-55 43,-70 16,-16 33,-24 52,-24 14,0 26,5 36,15 9,10 14,22 14,37 0,12 -3,20 -8,26 -5,7 -13,10 -22,10 -9,0 -17,-3 -22,-9 -5,-6 -8,-14 -8,-25 0,-5 1,-11 2,-16 2,-5 4,-11 7,-17l-5 0c-22,0 -42,17 -60,50 -18,32 -27,71 -27,115l0 90c0,19 3,32 11,38 7,5 30,8 68,9l0 20c-24,-1 -45,-2 -62,-3 -18,0 -34,-1 -49,-1 -3,0 -19,1 -46,2 -15,1 -27,1 -36,2l0 -20c29,-3 46,-6 51,-11 5,-4 8,-16 8,-36l0 -202c0,-19 -3,-31 -10,-35 -6,-5 -22,-7 -49,-8l0 -19c19,-2 38,-3 56,-5 19,-2 38,-4 56,-7zm280 0l0 232c0,32 6,55 17,67 12,13 31,19 58,19 27,0 50,-6 69,-19 19,-13 30,-29 31,-48l0 -177c0,-18 -2,-30 -8,-35 -6,-4 -20,-7 -42,-8l0 -19c20,-2 39,-4 56,-6 17,-2 34,-4 50,-6l0 279c0,19 2,31 7,35 5,4 16,7 35,9l-1 20c-11,-1 -20,-1 -29,-2 -8,0 -14,0 -18,0 -6,0 -13,0 -21,0 -7,1 -16,1 -26,2l0 -50c-15,19 -33,33 -53,42 -21,10 -46,14 -74,14 -38,0 -65,-9 -82,-28 -16,-19 -24,-51 -24,-98l0 -149c0,-18 -3,-30 -9,-35 -5,-4 -19,-7 -42,-8l0 -19c20,-2 38,-4 56,-6 17,-2 34,-4 50,-6zm428 0l0 276c0,22 3,36 9,40 7,4 23,6 49,7l0 20c-24,-2 -43,-2 -57,-3 -13,0 -24,-1 -33,-1 -8,0 -19,1 -33,1 -13,1 -33,1 -58,3l0 -20 1 0c44,-2 66,-18 66,-47l0 -202c0,-19 -3,-31 -9,-36 -7,-4 -26,-7 -58,-7l0 -19c21,-1 42,-3 62,-5 21,-1 41,-4 61,-7zm-27 -127c10,0 18,2 23,7 5,6 8,13 8,22 0,9 -4,18 -13,27 -9,8 -18,12 -29,12 -9,0 -16,-3 -21,-8 -5,-5 -7,-13 -7,-22 0,-9 4,-18 12,-26 9,-8 18,-12 27,-12zm216 127l0 81c17,-28 35,-48 56,-61 21,-13 46,-20 74,-20 36,0 63,10 79,29 17,20 25,52 25,97l0 153c0,19 2,31 7,35 4,4 16,7 34,9l0 20c-25,-2 -42,-3 -51,-3 -9,-1 -17,-1 -22,-1 -7,0 -17,1 -29,1 -11,1 -29,1 -51,3l0 -20c28,-2 44,-6 49,-10 5,-5 7,-17 7,-37l0 -158c0,-33 -5,-56 -15,-71 -10,-15 -26,-22 -49,-22 -28,0 -54,12 -77,37 -23,24 -35,51 -35,78l0 136c0,21 2,34 7,38 5,4 16,7 35,9l0 20c-23,-2 -40,-2 -51,-3 -10,0 -17,-1 -23,-1 -7,0 -16,1 -28,1 -11,1 -29,1 -54,3l0 -20c29,-3 46,-6 51,-10 5,-5 7,-17 7,-37l0 -202c0,-19 -3,-31 -9,-35 -6,-5 -22,-7 -49,-8l0 -19c24,-2 45,-4 62,-6 18,-1 34,-3 50,-6zm569 66c-11,-15 -23,-26 -36,-33 -14,-7 -28,-11 -44,-11 -31,0 -55,14 -72,40 -18,27 -27,65 -27,113 0,48 8,85 24,111 17,25 39,38 69,38 19,0 34,-4 48,-11 14,-7 27,-19 38,-34l0 -213zm55 -247l0 462c0,18 2,29 7,34 5,4 18,7 37,7l0 19c-14,2 -36,4 -67,6 -13,1 -24,2 -31,2l0 -45c-14,15 -29,27 -45,34 -17,8 -35,11 -57,11 -42,0 -76,-15 -101,-45 -26,-30 -39,-70 -39,-120 0,-58 14,-103 41,-135 27,-32 64,-49 111,-49 17,0 33,3 47,9 14,7 28,16 42,29l0 -152c0,-19 -3,-30 -9,-35 -6,-4 -23,-7 -50,-7l0 -20 15 0c14,0 29,0 45,-1 16,-1 34,-2 54,-4zm248 200c-28,0 -50,14 -67,42 -16,28 -25,66 -25,114 0,49 8,87 24,114 16,27 38,41 65,41 28,0 51,-14 67,-41 16,-28 24,-65 24,-114 0,-49 -8,-87 -23,-115 -16,-27 -37,-41 -65,-41zm-154 162c0,-55 15,-99 44,-131 29,-33 67,-50 114,-50 44,0 80,16 106,46 27,31 40,72 40,123 0,55 -14,99 -43,131 -29,33 -68,49 -116,49 -44,0 -79,-15 -105,-45 -27,-31 -40,-72 -40,-123zm708 -162c-28,0 -50,14 -66,42 -17,28 -25,66 -25,114 0,49 8,87 24,114 15,27 37,41 65,41 28,0 50,-14 66,-41 16,-28 25,-65 25,-114 0,-49 -8,-87 -24,-115 -15,-27 -37,-41 -65,-41zm-153 162c0,-55 14,-99 43,-131 29,-33 67,-50 115,-50 44,0 79,16 106,46 26,31 40,72 40,123 0,55 -15,99 -44,131 -29,33 -67,49 -115,49 -44,0 -80,-15 -106,-45 -26,-31 -39,-72 -39,-123zm654 -231l0 70 98 0 0 19 -98 0 0 237c0,30 26,46 76,47l1 0 -1 20c-26,-2 -48,-2 -64,-3 -17,0 -31,-1 -43,-1 -6,0 -15,1 -27,1 -12,1 -33,1 -63,3l0 -20c33,-2 51,-5 57,-9 6,-5 9,-17 9,-38l0 -237 -66 0 0 -19 13 0 23 0c12,0 20,-1 23,-3 3,-3 6,-9 7,-20 0,-5 0,-12 0,-22 2,-48 9,-83 21,-104 11,-16 24,-30 41,-38 17,-9 36,-14 57,-14 25,0 46,6 61,19 16,13 24,29 24,48 0,10 -2,18 -7,24 -5,6 -13,9 -22,9 -8,0 -15,-3 -20,-8 -5,-6 -8,-13 -8,-21 0,-7 2,-14 6,-20 4,-6 6,-10 6,-12 0,-4 -3,-9 -11,-13 -7,-5 -16,-7 -26,-7 -24,0 -41,9 -51,26 -10,17 -16,45 -16,86zm218 50l0 232c0,32 6,55 17,67 12,13 31,19 58,19 27,0 50,-6 69,-19 19,-13 30,-29 32,-48l0 -177c0,-18 -3,-30 -9,-35 -5,-4 -20,-7 -42,-8l0 -19c20,-2 39,-4 56,-6 18,-2 34,-4 50,-6l0 279c0,19 3,31 7,35 5,4 16,7 35,9l0 20c-12,-1 -21,-1 -29,-2 -8,0 -15,0 -19,0 -6,0 -12,0 -20,0 -8,1 -17,1 -27,2l0 -50c-15,19 -32,33 -53,42 -21,10 -45,14 -74,14 -38,0 -65,-9 -81,-28 -17,-19 -25,-51 -25,-98l0 -149c0,-18 -3,-30 -8,-35 -6,-4 -20,-7 -43,-8l0 -19c20,-2 39,-4 56,-6 17,-2 34,-4 50,-6zm403 -83l21 0 -3 103 85 0 0 19 -85 0 -5 187 0 17c0,27 3,45 10,55 7,10 18,15 34,15 12,0 22,-3 30,-9 8,-6 15,-15 20,-27l14 5c-6,21 -17,38 -33,50 -16,11 -35,17 -57,17 -27,0 -45,-7 -57,-21 -12,-14 -17,-37 -17,-69l0 -10 5 -210 -37 0 0 -15c22,-10 39,-24 51,-42 13,-18 20,-40 24,-65zm257 83l0 232c0,32 6,55 17,67 12,13 31,19 58,19 27,0 50,-6 69,-19 19,-13 30,-29 31,-48l0 -177c0,-18 -2,-30 -8,-35 -6,-4 -20,-7 -42,-8l0 -19c20,-2 39,-4 56,-6 17,-2 34,-4 50,-6l0 279c0,19 3,31 7,35 5,4 16,7 35,9l-1 20c-11,-1 -20,-1 -28,-2 -8,0 -15,0 -19,0 -6,0 -13,0 -21,0 -7,1 -16,1 -26,2l0 -50c-15,19 -32,33 -53,42 -21,10 -46,14 -74,14 -38,0 -65,-9 -82,-28 -16,-19 -24,-51 -24,-98l0 -149c0,-18 -3,-30 -8,-35 -6,-4 -20,-7 -43,-8l0 -19c20,-2 38,-4 56,-6 17,-2 34,-4 50,-6zm426 0l0 94c13,-31 27,-55 43,-70 16,-16 33,-24 52,-24 15,0 27,5 36,15 9,10 14,22 14,37 0,12 -3,20 -8,26 -5,7 -12,10 -22,10 -9,0 -16,-3 -22,-9 -5,-6 -7,-14 -7,-25 0,-5 0,-11 2,-16 1,-5 3,-11 6,-17l-4 0c-23,0 -43,17 -61,50 -18,32 -27,71 -27,115l0 90c0,19 4,32 11,38 8,5 31,8 68,9l0 20c-24,-1 -44,-2 -62,-3 -18,0 -34,-1 -48,-1 -4,0 -19,1 -46,2 -15,1 -27,1 -37,2l0 -20c29,-3 46,-6 51,-11 5,-4 8,-16 8,-36l0 -202c0,-19 -3,-31 -9,-35 -6,-5 -23,-7 -50,-8l0 -19c19,-2 38,-3 57,-5 18,-2 37,-4 55,-7zm328 19c-28,0 -50,14 -66,42 -17,28 -25,66 -25,114 0,49 8,87 24,114 15,27 37,41 65,41 28,0 50,-14 66,-41 16,-28 25,-65 25,-114 0,-49 -8,-87 -24,-115 -15,-27 -37,-41 -65,-41zm-153 162c0,-55 14,-99 43,-131 29,-33 67,-50 115,-50 44,0 79,16 106,46 26,31 40,72 40,123 0,55 -15,99 -44,131 -29,33 -67,49 -115,49 -44,0 -80,-15 -106,-45 -26,-31 -39,-72 -39,-123zm795 -115c-11,-15 -23,-26 -36,-33 -14,-7 -28,-11 -44,-11 -31,0 -55,14 -72,40 -18,27 -27,65 -27,113 0,48 8,85 24,111 17,25 39,38 69,38 19,0 34,-4 48,-11 14,-7 27,-19 38,-34l0 -213zm55 -247l0 462c0,18 2,29 7,34 5,4 18,7 37,7l0 19c-14,2 -36,4 -67,6 -13,1 -24,2 -31,2l0 -45c-14,15 -29,27 -45,34 -17,8 -35,11 -57,11 -42,0 -76,-15 -101,-45 -26,-30 -39,-70 -39,-120 0,-58 14,-103 41,-135 27,-32 64,-49 111,-49 17,0 33,3 47,9 14,7 28,16 42,29l0 -152c0,-19 -3,-30 -9,-35 -6,-4 -23,-7 -50,-7l0 -20 15 0c14,0 29,0 45,-1 16,-1 34,-2 54,-4zm248 200c-28,0 -50,14 -67,42 -16,28 -25,66 -25,114 0,49 8,87 24,114 16,27 38,41 65,41 28,0 51,-14 67,-41 16,-28 24,-65 24,-114 0,-49 -8,-87 -23,-115 -16,-27 -37,-41 -65,-41zm-154 162c0,-55 15,-99 44,-131 29,-33 67,-50 114,-50 44,0 80,16 106,46 27,31 40,72 40,123 0,55 -14,99 -43,131 -29,33 -68,49 -116,49 -44,0 -79,-15 -105,-45 -27,-31 -40,-72 -40,-123zm690 -105c3,0 8,1 13,1 19,0 31,1 37,1 44,0 76,-9 96,-27 20,-18 30,-47 30,-85 0,-37 -10,-65 -30,-82 -20,-17 -51,-26 -94,-26 -5,0 -13,0 -25,1 -11,0 -20,1 -27,1l0 216zm-122 -239c11,0 21,1 32,1 10,1 21,1 32,1l22 0c4,0 16,0 34,-1 18,-1 34,-1 48,-1 69,0 120,10 151,30 31,20 47,52 47,96 0,39 -13,69 -38,90 -26,21 -65,32 -116,35 46,5 79,17 100,34 21,18 34,46 39,84 1,9 2,24 3,42 3,44 14,67 34,67 10,0 18,-3 24,-10 6,-6 11,-16 15,-30l14 3c-3,24 -12,42 -25,54 -12,11 -30,17 -51,17 -26,0 -45,-7 -58,-20 -12,-14 -18,-36 -18,-65 0,-8 0,-17 0,-28 1,-11 1,-18 1,-22 0,-45 -9,-74 -27,-89 -17,-16 -50,-23 -98,-23l-43 0 0 161c0,25 3,40 9,47 6,6 22,10 48,10l0 23c-28,-2 -48,-2 -59,-3 -11,0 -20,-1 -26,-1 -9,0 -20,1 -34,1 -14,1 -34,1 -60,3l0 -23c25,0 41,-3 47,-9 7,-7 10,-23 10,-48l0 -346c0,-26 -3,-42 -9,-48 -7,-5 -23,-9 -48,-9l0 -23zm714 299l0 -10c0,-34 -7,-60 -21,-79 -14,-18 -34,-28 -60,-28 -28,0 -50,11 -68,33 -18,21 -28,51 -30,89l179 -5zm53 20l-233 6 0 5c0,48 9,85 28,110 19,25 47,37 84,37 26,0 47,-6 66,-19 18,-12 32,-30 40,-53l16 6c-10,32 -27,57 -52,75 -25,17 -55,26 -90,26 -49,0 -87,-15 -114,-45 -27,-30 -41,-72 -41,-127 0,-52 15,-95 45,-127 30,-33 68,-50 115,-50 42,0 76,13 100,37 25,25 37,59 37,103 0,2 0,5 0,8 -1,4 -1,6 -1,8zm340 86l15 6c-11,33 -28,58 -51,75 -24,18 -54,26 -89,26 -48,0 -85,-15 -113,-44 -28,-30 -42,-69 -42,-120 0,-55 16,-99 47,-133 31,-35 72,-52 121,-52 33,0 61,9 84,28 22,18 33,40 33,65 0,9 -2,16 -6,22 -5,5 -11,8 -19,8 -8,0 -15,-3 -20,-10 -6,-6 -9,-14 -9,-24 0,-6 2,-12 4,-20 3,-7 4,-11 4,-12 0,-10 -7,-18 -20,-25 -13,-8 -30,-11 -49,-11 -33,0 -59,14 -79,43 -19,28 -29,67 -29,115 0,44 10,77 29,100 19,23 46,35 83,35 25,0 47,-6 65,-19 19,-12 32,-30 41,-53z"/>
   <path class="fil2" d="M14520 13503c-28,0 -50,14 -67,42 -16,28 -24,66 -24,114 0,49 8,87 23,114 16,27 38,41 65,41 29,0 51,-14 67,-41 16,-28 24,-65 24,-114 0,-49 -7,-87 -23,-115 -15,-27 -37,-41 -65,-41zm-153 162c0,-55 14,-99 43,-131 29,-33 67,-50 115,-50 44,0 79,16 105,46 27,31 40,72 40,123 0,55 -14,99 -43,131 -29,33 -67,49 -115,49 -44,0 -80,-15 -106,-45 -26,-31 -39,-72 -39,-123zm131 -334l42 0 75 116 -19 0 -77 -69 -77 69 -20 0 76 -116zm322 153l0 81c17,-28 35,-48 56,-61 21,-13 46,-20 74,-20 36,0 63,10 79,29 17,20 25,52 25,97l0 153c0,19 2,31 7,35 5,4 16,7 34,9l0 20c-25,-2 -42,-3 -51,-3 -9,-1 -17,-1 -22,-1 -7,0 -17,1 -29,1 -11,1 -29,1 -51,3l0 -20c28,-2 44,-6 49,-10 5,-5 7,-17 7,-37l0 -158c0,-33 -5,-56 -15,-71 -10,-15 -26,-22 -49,-22 -28,0 -54,12 -77,37 -23,24 -35,51 -35,78l0 136c0,21 2,34 7,38 5,4 16,7 35,9l0 20c-23,-2 -40,-2 -50,-3 -11,0 -18,-1 -24,-1 -7,0 -16,1 -27,1 -12,1 -30,1 -55,3l0 -20c29,-3 46,-6 51,-10 5,-5 7,-17 7,-37l0 -202c0,-19 -3,-31 -9,-35 -6,-5 -22,-7 -49,-8l0 -19c24,-2 45,-4 62,-6 18,-1 34,-3 50,-6zm608 242l15 6c-10,33 -27,58 -51,75 -24,18 -53,26 -89,26 -47,0 -85,-15 -113,-44 -28,-30 -42,-69 -42,-120 0,-55 16,-99 47,-133 32,-35 72,-52 122,-52 33,0 60,9 83,28 23,18 34,40 34,65 0,9 -2,16 -7,22 -5,5 -11,8 -18,8 -8,0 -15,-3 -21,-10 -5,-6 -8,-14 -8,-24 0,-6 1,-12 4,-20 2,-7 3,-11 3,-12 0,-10 -6,-18 -20,-25 -13,-8 -29,-11 -49,-11 -32,0 -58,14 -78,43 -20,28 -30,67 -30,115 0,44 10,77 29,100 19,23 47,35 83,35 25,0 47,-6 66,-19 18,-12 32,-30 40,-53zm256 -65c-58,11 -96,23 -113,34 -17,12 -26,28 -26,49 0,18 5,32 15,43 10,11 23,16 39,16 16,0 30,-5 44,-13 14,-9 27,-23 39,-41l2 -88zm57 -53l-3 112c0,4 0,10 0,19 0,9 0,16 0,20 0,13 2,22 7,28 5,7 12,10 22,10 8,0 14,-2 19,-5 6,-4 10,-9 14,-16l12 7c-8,17 -18,30 -30,38 -12,8 -27,12 -44,12 -17,0 -30,-4 -40,-14 -10,-9 -15,-22 -16,-39 -15,18 -32,32 -50,40 -18,9 -38,13 -61,13 -24,0 -43,-7 -58,-20 -14,-14 -21,-33 -21,-56 0,-27 9,-48 27,-63 18,-15 59,-29 122,-43 7,-2 16,-3 26,-5 12,-2 18,-5 18,-7l1 -33 0 -12c0,-33 -5,-57 -14,-70 -9,-13 -24,-19 -45,-19 -14,0 -26,2 -37,5 -11,4 -22,10 -31,18 0,2 0,4 1,7 1,12 1,19 1,23 0,13 -2,23 -8,31 -6,8 -14,12 -23,12 -7,0 -11,-3 -15,-7 -4,-5 -6,-11 -6,-20 0,-22 13,-43 37,-61 25,-19 54,-29 86,-29 38,0 66,9 83,27 18,18 26,47 26,88l0 9zm76 -117c19,1 35,2 45,2 11,1 19,1 26,1 8,0 17,0 28,-1 12,0 27,-1 47,-2l0 19c-19,2 -31,4 -36,6 -5,2 -7,6 -7,12 0,4 0,7 1,11 1,3 2,7 3,10l77 210 81 -210c1,-4 2,-8 3,-12 1,-3 1,-7 1,-9 0,-6 -2,-10 -7,-12 -4,-2 -16,-4 -35,-6l0 -19c13,1 24,2 32,2 9,1 16,1 22,1 6,0 12,0 20,-1 7,0 18,-1 31,-2l0 19c-19,0 -34,13 -44,37l0 0 -77 192c-11,26 -19,46 -25,59 -6,14 -11,26 -15,35l-15 -2 -114 -289c-1,-1 -1,-3 -2,-5 -7,-18 -18,-27 -35,-27l-5 0 0 -19zm515 12c-28,0 -50,14 -67,42 -16,28 -25,66 -25,114 0,49 8,87 24,114 16,27 38,41 65,41 28,0 51,-14 67,-41 16,-28 24,-65 24,-114 0,-49 -8,-87 -23,-115 -16,-27 -37,-41 -65,-41zm-154 162c0,-55 15,-99 44,-131 29,-33 67,-50 114,-50 44,0 80,16 106,46 27,31 40,72 40,123 0,55 -14,99 -43,131 -29,33 -68,49 -116,49 -44,0 -79,-15 -105,-45 -27,-31 -40,-72 -40,-123zm690 -86l0 225 51 0c52,0 88,-8 108,-25 20,-17 30,-46 30,-87 0,-41 -11,-70 -33,-87 -22,-17 -58,-26 -110,-26l-46 0zm0 -235l0 213 63 0c39,0 68,-9 86,-26 18,-16 27,-43 27,-80 0,-39 -9,-67 -26,-83 -17,-16 -49,-24 -96,-24l-54 0zm-122 -23c1,0 3,0 5,0 2,0 4,0 5,0 1,0 3,0 6,0 20,1 40,2 60,2 18,0 40,0 65,-1 25,-1 40,-1 46,-1 59,0 103,10 131,31 28,20 42,52 42,95 0,33 -9,59 -28,79 -20,21 -48,35 -86,42 47,9 80,24 102,44 22,21 33,47 33,81 0,24 -5,46 -14,64 -9,18 -23,33 -41,44 -14,10 -31,16 -52,20 -21,4 -54,6 -99,6 -10,0 -25,0 -46,-1 -21,0 -36,-1 -47,-1 -20,0 -36,1 -48,1 -11,0 -23,0 -34,1l0 -23c25,0 41,-3 47,-9 7,-6 10,-22 10,-48l0 -346c0,-26 -3,-42 -9,-48 -7,-5 -23,-9 -48,-9l0 -23zm643 340c-59,11 -96,23 -113,34 -17,12 -26,28 -26,49 0,18 5,32 15,43 10,11 23,16 39,16 16,0 30,-5 44,-13 14,-9 27,-23 39,-41l2 -88zm57 -53l-3 112c0,4 0,10 0,19 0,9 0,16 0,20 0,13 2,22 7,28 5,7 12,10 22,10 8,0 14,-2 19,-5 5,-4 10,-9 14,-16l12 7c-8,17 -18,30 -31,38 -12,8 -26,12 -43,12 -17,0 -30,-4 -40,-14 -10,-9 -15,-22 -16,-39 -16,18 -32,32 -50,40 -18,9 -38,13 -62,13 -23,0 -43,-7 -57,-20 -14,-14 -21,-33 -21,-56 0,-27 9,-48 27,-63 18,-15 59,-29 121,-43 8,-2 17,-3 27,-5 12,-2 18,-5 18,-7l0 -33 0 -12c0,-33 -4,-57 -13,-70 -9,-13 -24,-19 -46,-19 -13,0 -25,2 -36,5 -11,4 -22,10 -31,18 0,2 0,4 1,7 1,12 1,19 1,23 0,13 -3,23 -8,31 -6,8 -14,12 -23,12 -7,0 -12,-3 -15,-7 -4,-5 -6,-11 -6,-20 0,-22 13,-43 37,-61 25,-19 53,-29 86,-29 38,0 66,9 83,27 17,18 26,47 26,88l0 9zm204 -124l0 276c0,22 3,36 9,40 7,4 23,6 49,7l0 20c-24,-2 -43,-2 -56,-3 -14,0 -25,-1 -34,-1 -8,0 -19,1 -33,1 -13,1 -32,1 -58,3l0 -20 1 0c44,-2 66,-18 66,-47l0 -202c0,-19 -3,-31 -9,-36 -7,-4 -26,-7 -58,-7l0 -19c21,-1 42,-3 62,-5 21,-1 41,-4 61,-7zm-27 -127c10,0 18,2 23,7 5,6 8,13 8,22 0,9 -4,18 -13,27 -9,8 -18,12 -28,12 -9,0 -16,-3 -22,-8 -5,-5 -7,-13 -7,-22 0,-9 4,-18 12,-26 9,-8 18,-12 27,-12zm310 304c-59,11 -97,23 -114,34 -17,12 -25,28 -25,49 0,18 5,32 15,43 10,11 23,16 38,16 16,0 31,-5 44,-13 14,-9 27,-23 39,-41l3 -88zm57 -53l-3 112c0,4 0,10 0,19 -1,9 -1,16 -1,20 0,13 3,22 7,28 5,7 13,10 23,10 7,0 13,-2 19,-5 5,-4 10,-9 13,-16l12 7c-8,17 -18,30 -30,38 -12,8 -27,12 -43,12 -17,0 -31,-4 -40,-14 -10,-9 -16,-22 -17,-39 -15,18 -31,32 -49,40 -18,9 -39,13 -62,13 -24,0 -43,-7 -57,-20 -15,-14 -22,-33 -22,-56 0,-27 9,-48 28,-63 18,-15 58,-29 121,-43 8,-2 17,-3 26,-5 12,-2 18,-5 18,-7l1 -33 0 -12c0,-33 -5,-57 -14,-70 -9,-13 -24,-19 -45,-19 -14,0 -26,2 -37,5 -11,4 -21,10 -31,18 0,2 1,4 1,7 1,12 2,19 2,23 0,13 -3,23 -9,31 -6,8 -13,12 -23,12 -6,0 -11,-3 -15,-7 -3,-5 -5,-11 -5,-20 0,-22 12,-43 37,-61 24,-19 53,-29 85,-29 38,0 66,9 83,27 18,18 27,47 27,88l0 9zm202 -124l0 81c16,-28 35,-48 56,-61 21,-13 45,-20 73,-20 37,0 64,10 80,29 16,20 24,52 24,97l0 153c0,19 3,31 7,35 5,4 17,7 35,9l0 20c-25,-2 -42,-3 -51,-3 -10,-1 -17,-1 -23,-1 -7,0 -16,1 -28,1 -12,1 -29,1 -52,3l0 -20c28,-2 45,-6 49,-10 5,-5 8,-17 8,-37l0 -158c0,-33 -5,-56 -16,-71 -10,-15 -26,-22 -48,-22 -28,0 -54,12 -77,37 -24,24 -36,51 -36,78l0 136c0,21 3,34 7,38 5,4 17,7 36,9l0 20c-24,-2 -41,-2 -51,-3 -10,0 -18,-1 -23,-1 -7,0 -17,1 -28,1 -11,1 -30,1 -54,3l0 -20c29,-3 45,-6 50,-10 5,-5 8,-17 8,-37l0 -202c0,-19 -3,-31 -9,-35 -6,-5 -22,-7 -49,-8l0 -19c24,-2 44,-4 62,-6 17,-1 34,-3 50,-6zm482 19c-28,0 -51,14 -67,42 -17,28 -25,66 -25,114 0,49 8,87 24,114 16,27 37,41 65,41 28,0 50,-14 66,-41 17,-28 25,-65 25,-114 0,-49 -8,-87 -24,-115 -15,-27 -37,-41 -64,-41zm-154 162c0,-55 14,-99 43,-131 29,-33 67,-50 115,-50 44,0 79,16 106,46 26,31 40,72 40,123 0,55 -15,99 -44,131 -29,33 -67,49 -115,49 -44,0 -79,-15 -106,-45 -26,-31 -39,-72 -39,-123z"/>
  </g>
  <path class="fil3" d="M7651 11635l17 -77 37 0 0 5c-4,87 -6,151 -6,192 0,11 0,38 1,80 1,27 1,48 2,65l-38 0c-10,-114 -47,-204 -110,-269 -63,-64 -145,-97 -245,-97 -115,0 -203,43 -265,130 -61,86 -92,209 -92,370 0,164 34,291 103,381 68,90 164,136 286,136 83,0 153,-22 210,-65 58,-43 99,-105 123,-185l43 0c-23,100 -70,177 -141,231 -72,53 -162,80 -272,80 -155,0 -279,-51 -374,-153 -94,-103 -142,-237 -142,-404 0,-168 48,-306 144,-411 95,-106 219,-159 372,-159 70,0 134,13 193,38 59,26 110,63 154,112zm544 260c-61,0 -109,31 -145,91 -36,60 -54,143 -54,248 0,105 17,188 51,247 35,60 82,89 142,89 61,0 109,-29 144,-89 36,-60 53,-142 53,-247 0,-107 -17,-190 -50,-249 -34,-60 -81,-90 -141,-90zm-334 351c0,-119 31,-214 94,-285 63,-71 146,-107 249,-107 96,0 172,33 230,100 58,66 87,155 87,268 0,118 -32,213 -95,284 -63,70 -146,106 -250,106 -96,0 -172,-33 -229,-99 -57,-66 -86,-155 -86,-267zm986 -392l0 174c35,-60 75,-103 121,-131 46,-29 98,-43 159,-43 80,0 138,21 173,63 36,43 53,113 53,211l0 332c0,42 5,67 16,75 10,9 35,16 75,20l0 43c-55,-4 -92,-6 -112,-7 -20,0 -36,-1 -48,-1 -16,0 -36,1 -62,2 -25,1 -63,3 -112,6l0 -43c61,-5 96,-13 106,-22 11,-10 16,-36 16,-81l0 -342c0,-71 -11,-123 -33,-155 -22,-31 -57,-47 -106,-47 -60,0 -116,26 -167,80 -51,53 -76,110 -76,171l0 293c0,46 5,74 15,83 10,9 36,16 76,20l0 43c-51,-3 -88,-5 -109,-6 -22,-1 -39,-2 -51,-2 -15,0 -35,1 -60,2 -25,1 -64,3 -118,6l0 -43c62,-6 99,-13 110,-23 10,-9 16,-35 16,-80l0 -437c0,-42 -7,-68 -20,-77 -13,-10 -48,-15 -106,-16l0 -43c52,-4 97,-7 135,-12 37,-3 74,-8 109,-13zm1147 65l12 -44 33 0c-1,17 -2,33 -2,50 -1,16 -1,37 -1,61 0,20 1,51 2,93 1,4 1,7 1,9l-37 0c-6,-62 -27,-109 -62,-142 -34,-33 -81,-49 -140,-49 -42,0 -76,12 -102,36 -25,24 -38,55 -38,93 0,33 11,59 33,78 22,20 76,42 163,67 82,24 141,53 175,86 34,34 51,77 51,131 0,69 -24,124 -72,164 -48,40 -113,60 -196,60 -39,0 -75,-5 -107,-15 -33,-11 -65,-27 -96,-48l-10 49 -35 0c1,-30 2,-61 2,-93 1,-32 1,-64 1,-98 0,-19 0,-33 -1,-42 0,-9 -1,-18 -2,-26l42 0c4,77 23,135 59,173 35,38 87,57 154,57 50,0 88,-12 116,-36 27,-24 41,-57 41,-100 0,-36 -11,-64 -33,-85 -22,-21 -65,-41 -128,-59l0 0c-172,-52 -258,-125 -258,-218 0,-64 22,-117 66,-157 45,-40 104,-60 177,-60 39,0 73,6 105,16 31,10 60,27 87,49zm357 -245l46 0 -6 223 185 0 0 41 -185 0 -10 406 0 37c0,59 7,98 21,120 15,21 40,31 75,31 25,0 46,-6 63,-19 18,-12 33,-32 44,-59l31 13c-13,45 -37,81 -72,106 -34,26 -76,39 -124,39 -57,0 -98,-15 -123,-46 -25,-30 -38,-80 -38,-150l0 -22 12 -456 -81 0 0 -32c47,-22 84,-52 111,-92 27,-39 44,-86 51,-140zm564 180l0 203c27,-67 58,-118 92,-152 35,-34 72,-51 113,-51 32,0 58,11 78,32 20,21 31,48 31,81 0,24 -6,43 -17,57 -12,13 -27,20 -48,20 -20,0 -36,-6 -47,-19 -12,-13 -17,-31 -17,-55 0,-11 1,-22 4,-34 3,-11 8,-23 14,-36l-9 0c-49,0 -93,36 -132,107 -40,71 -59,155 -59,251l0 194c0,43 8,70 24,82 17,12 66,19 149,21l-1 43c-52,-3 -97,-5 -135,-6 -39,-1 -74,-2 -105,-2 -8,0 -41,2 -100,4 -32,2 -59,3 -79,4l0 -43c63,-6 100,-14 111,-23 11,-9 16,-36 16,-80l0 -437c0,-42 -6,-68 -20,-77 -13,-10 -48,-15 -107,-16l0 -43c41,-3 82,-6 123,-10 40,-5 80,-9 121,-15zm607 0l0 503c0,70 13,119 37,146 25,28 67,41 125,41 59,0 109,-14 151,-42 41,-28 64,-63 68,-104l0 -383c0,-41 -6,-66 -18,-76 -12,-10 -43,-16 -92,-17l0 -43c44,-4 85,-8 122,-12 38,-4 74,-9 109,-13l0 605c0,42 5,67 15,76 10,9 35,16 75,20l0 43c-25,-1 -45,-3 -63,-4 -17,0 -31,-1 -40,-1 -13,0 -27,1 -45,1 -17,1 -36,3 -58,4l0 -108c-32,41 -70,72 -115,92 -45,20 -98,30 -160,30 -83,0 -142,-21 -177,-61 -36,-41 -53,-112 -53,-213l0 -323c0,-41 -6,-66 -19,-76 -12,-10 -42,-16 -91,-18l0 -42c42,-4 82,-8 120,-12 37,-4 74,-9 109,-13z"/>
  <path class="fil4" d="M12562 12012l17 0 30 0c89,0 152,-17 189,-51 36,-35 55,-93 55,-176 0,-72 -17,-125 -52,-158 -34,-34 -89,-51 -163,-51 -7,0 -19,1 -36,2 -17,1 -31,2 -40,3l0 431zm-384 -509c34,2 70,3 106,4 36,1 75,2 116,2 39,0 93,-1 164,-3 70,-2 122,-3 154,-3 129,0 227,23 294,69 68,46 101,114 101,203 0,86 -28,151 -83,195 -55,45 -140,71 -256,79 101,8 174,29 221,63 46,34 75,90 87,166 4,22 6,53 9,92 4,80 25,120 62,120 19,0 34,-7 45,-20 11,-14 20,-38 27,-73l55 8c-9,71 -33,124 -72,158 -38,35 -92,53 -162,53 -71,0 -122,-19 -153,-57 -32,-38 -48,-100 -48,-185l0 -79c0,-85 -15,-141 -45,-167 -30,-26 -89,-39 -175,-39l-63 0 0 308c0,59 8,96 23,110 15,15 50,23 105,23l0 72c-54,-3 -102,-6 -144,-7 -42,-2 -78,-2 -108,-2 -29,0 -65,0 -108,2 -44,1 -94,4 -152,7l0 -72c56,0 92,-8 107,-23 15,-16 23,-52 23,-110l0 -689c0,-58 -8,-95 -23,-110 -16,-15 -51,-23 -107,-23l0 -72zm2066 -7c2,59 4,112 7,160 3,49 6,95 10,141l-66 0c-8,-86 -29,-144 -62,-174 -34,-30 -97,-45 -189,-45l-230 0 0 405 95 0c66,0 106,-9 122,-29 16,-20 27,-66 31,-139l66 0c0,9 -1,23 -1,42 -4,84 -5,141 -5,172 0,33 1,93 5,180 0,20 1,35 1,45l-66 0c-3,-78 -15,-131 -36,-157 -20,-27 -59,-40 -117,-40l-95 0 0 471 278 0c96,0 162,-17 198,-53 35,-34 58,-103 68,-204l66 0c-4,55 -8,110 -11,165 -3,55 -6,110 -8,166l-975 0 0 -72c57,0 92,-8 108,-23 15,-16 22,-52 22,-110l0 -689c0,-58 -7,-95 -23,-110 -15,-15 -51,-23 -107,-23l0 -72 208 0c130,0 253,-1 369,-2 116,-1 228,-3 337,-5zm1099 111l11 -77 61 0c-1,38 -2,74 -3,108 -1,35 -1,67 -1,96l0 113 0 77 -60 0c-8,-115 -41,-204 -96,-266 -56,-62 -131,-93 -226,-93 -107,0 -187,40 -239,120 -53,79 -79,201 -79,366 0,154 28,271 84,350 56,80 138,120 246,120 85,0 155,-21 210,-63 55,-42 92,-103 111,-182l69 0c-18,111 -65,196 -140,254 -75,57 -177,86 -306,86 -163,0 -296,-51 -398,-153 -102,-102 -153,-234 -153,-399 0,-170 52,-309 157,-415 105,-107 242,-160 411,-160 67,0 130,10 191,31 60,21 110,50 150,87z"/>
  <g id="_3186983808768">
   <polygon class="fil5" points="1182,10810 2682,10413 2689,11210 2682,11213 1182,11610 "/>
   <polygon class="fil6" points="1182,11610 2682,11213 2682,11513 1182,11910 "/>
   <polygon class="fil7" points="1182,11906 2682,11509 2682,12309 2682,12309 1182,12706 "/>
   <polygon class="fil8" points="1182,13006 2682,12609 2682,13409 2682,13409 1182,13806 "/>
   <polygon class="fil9" points="1182,14106 2688,13704 2699,14507 1182,14507 "/>
   <polygon class="fil10" points="4182,10810 2682,10413 2682,11213 2682,11213 4182,11610 "/>
   <polygon class="fil11" points="4182,11610 2682,11213 2682,11513 4182,11910 "/>
   <polygon class="fil12" points="4182,11906 2682,11509 2682,12309 2682,12309 4182,12706 "/>
   <polygon class="fil13" points="4182,13006 2682,12609 2682,13409 2682,13409 4182,13806 "/>
   <polygon class="fil14" points="4182,14106 2682,13707 2682,14507 4182,14507 "/>
   <polygon class="fil15" points="1662,11779 2682,11509 2682,12309 1657,12580 "/>
   <polygon class="fil16" points="1662,12879 2682,12609 2682,13409 1657,13680 "/>
   <polygon class="fil17" points="3152,14507 3790,14507 3555,13940 3150,13831 "/>
   <polygon class="fil18" points="3151,13533 3416,13603 3151,12966 3151,12906 "/>
   <polygon class="fil19" points="4182,13006 3808,12907 4182,13806 4182,13806 "/>
   <polygon class="fil6" points="1182,11610 2682,11213 2682,11513 1182,11910 "/>
   <polygon class="fil11" points="4182,11610 2682,11213 2682,11513 4182,11910 "/>
   <polygon class="fil20" points="1182,13806 2682,13409 2682,13709 1182,14106 "/>
   <polygon class="fil21" points="4182,13806 2682,13409 2682,13709 4182,14106 "/>
   <polygon class="fil20" points="1182,13806 2682,13409 2682,13709 1182,14106 "/>
   <polygon class="fil21" points="4182,13806 2682,13409 2682,13709 4182,14106 "/>
   <polygon class="fil22" points="1182,12706 2682,12309 2682,12609 1182,13006 "/>
   <polygon class="fil23" points="4182,12706 2682,12309 2682,12609 4182,13006 "/>
   <polygon class="fil22" points="1182,12706 2682,12309 2682,12609 1182,13006 "/>
   <polygon class="fil23" points="4182,12706 2682,12309 2682,12609 4182,13006 "/>
   <polygon class="fil24" points="2682,10413 2700,10543 2689,11210 2644,10541 "/>
  </g>
 </g>
</svg>
